<svg width="318" height="151" viewBox="0 0 318 151" fill="none" xmlns="http://www.w3.org/2000/svg">
<path d="M317.26 75.4346C315.413 76.1961 313.442 78.1014 312.176 79.986C309.395 84.1269 307.972 89.0936 305.048 93.2032C294.536 107.975 275.78 109.036 261.344 107.528C261.491 107.543 259.323 111.913 258.971 112.396C257.799 114.007 256.4 115.237 254.838 116.142C251.635 117.998 247.98 118.335 244.512 118.343C236.645 118.361 228.831 117.126 220.994 116.436C204.681 114.998 188.395 111.919 172.056 112.763C167.105 113.019 161.362 114.275 159 119.869C156.638 114.275 150.895 113.019 145.944 112.763C129.605 111.919 113.319 114.998 97.0062 116.436C89.1691 117.126 81.355 118.361 73.4882 118.343C70.0205 118.335 66.3652 117.998 63.1622 116.142C61.5998 115.237 60.2011 114.007 59.0287 112.396C58.6767 111.913 56.5086 107.543 56.6563 107.528C42.2204 109.036 23.4638 107.975 12.9521 93.2032C10.0276 89.0936 8.60509 84.1269 5.82409 79.986C4.55835 78.1014 2.58675 76.1961 0.739746 75.4346C2.58677 74.6732 4.55836 72.7678 5.82409 70.8832C8.60509 66.7424 10.0276 61.7757 12.9521 57.666C23.4638 42.8945 42.2204 41.8334 56.6562 43.3413C56.5085 43.3259 58.6767 38.9564 59.0287 38.4728C60.2011 36.8618 61.5998 35.6318 63.1622 34.7268C66.3652 32.8717 70.0205 32.5347 73.4882 32.5267C81.3549 32.5085 89.1691 33.7428 97.0062 34.4334C113.319 35.8707 129.605 38.9507 145.944 38.1059C150.895 37.8499 156.638 36.5942 159 31C161.362 36.5942 167.105 37.8499 172.056 38.1059C188.395 38.9507 204.681 35.8707 220.994 34.4334C228.831 33.7428 236.645 32.5085 244.512 32.5267C247.98 32.5347 251.635 32.8716 254.838 34.7268C256.4 35.6318 257.799 36.8618 258.971 38.4728C259.323 38.9564 261.491 43.3259 261.344 43.3413C275.78 41.8334 294.536 42.8945 305.048 57.666C307.972 61.7757 309.395 66.7424 312.176 70.8832C313.442 72.7679 315.413 74.6732 317.26 75.4346Z" stroke="#5225B5" stroke-miterlimit="10" stroke-linejoin="round"/>
<path d="M201.922 120.231C204.509 120.838 206.241 123.809 205.471 126.317C204.554 129.302 200.818 130.706 197.714 130.097C194.857 129.536 191.751 127.619 189.229 126.188C186.534 124.66 183.879 123.014 180.994 121.849C177.366 120.384 172.496 119.093 168.833 121.159C165.786 122.876 163.273 127.808 166.005 130.784C167.225 132.112 169.207 132.659 170.984 132.284" stroke="#5225B5" stroke-miterlimit="10" stroke-linecap="round" stroke-linejoin="round"/>
<path d="M114.557 120.231C111.97 120.838 110.238 123.809 111.009 126.317C111.926 129.302 115.662 130.706 118.765 130.097C121.623 129.536 124.728 127.619 127.251 126.188C129.945 124.66 132.6 123.014 135.486 121.849C139.113 120.384 143.983 119.093 147.647 121.159C150.693 122.876 153.206 127.808 150.474 130.784C149.255 132.112 147.272 132.659 145.495 132.284" stroke="#5225B5" stroke-miterlimit="10" stroke-linecap="round" stroke-linejoin="round"/>
<path d="M144.521 128.601C144.311 127.382 143.333 126.332 142.173 125.912C139.53 124.955 136.392 126.517 134.762 128.586C133.138 130.648 132.721 133.391 133.287 135.902C135.694 146.59 151.618 144.626 155.294 135.793C155.801 134.575 155.846 132.578 154.153 132.482C152.715 132.401 151.922 133.75 151.608 134.934C150.396 139.516 152.249 144.577 155.854 147.629C156.765 148.401 157.519 148.991 158.24 149.917C158.96 148.991 159.714 148.401 160.626 147.629C164.23 144.577 166.084 139.516 164.871 134.934C164.558 133.75 163.764 132.401 162.327 132.482C160.634 132.578 160.678 134.575 161.185 135.793C164.862 144.626 180.785 146.59 183.193 135.902C183.759 133.391 183.342 130.648 181.718 128.586C180.088 126.517 176.95 124.955 174.306 125.912C173.147 126.332 172.169 127.382 171.958 128.601" stroke="#5225B5" stroke-miterlimit="10" stroke-linecap="round" stroke-linejoin="round"/>
<path d="M114.557 30.7688C111.97 30.1622 110.238 27.1913 111.009 24.6829C111.926 21.6977 115.662 20.294 118.765 20.903C121.623 21.4638 124.729 23.3813 127.251 24.8118C129.945 26.3399 132.601 27.9861 135.486 29.151C139.113 30.6156 143.983 31.907 147.647 29.8412C150.693 28.1235 153.206 23.1922 150.474 20.2159C149.255 18.8877 147.272 18.3406 145.495 18.7159" stroke="#5225B5" stroke-miterlimit="10" stroke-linecap="round" stroke-linejoin="round"/>
<path d="M201.922 30.7688C204.509 30.1622 206.241 27.1913 205.471 24.6829C204.554 21.6977 200.818 20.294 197.714 20.903C194.857 21.4638 191.751 23.3813 189.229 24.8118C186.534 26.3399 183.879 27.986 180.994 29.151C177.366 30.6156 172.496 31.907 168.833 29.8412C165.786 28.1235 163.273 23.1922 166.006 20.2159C167.225 18.8877 169.208 18.3406 170.985 18.7159" stroke="#5225B5" stroke-miterlimit="10" stroke-linecap="round" stroke-linejoin="round"/>
<path d="M171.958 22.3994C172.169 23.6177 173.147 24.6682 174.306 25.0879C176.95 26.0448 180.088 24.4829 181.718 22.4138C183.341 20.3521 183.759 17.6092 183.193 15.0975C180.785 4.40987 164.862 6.37417 161.185 15.2071C160.678 16.4248 160.634 18.4221 162.327 18.5179C163.764 18.5993 164.558 17.2502 164.871 16.0657C166.084 11.484 164.23 6.42255 160.626 3.37117C159.714 2.59942 158.96 2.00911 158.24 1.08319C157.519 2.00911 156.765 2.59942 155.853 3.37117C152.249 6.42255 150.396 11.484 151.608 16.0657C151.922 17.2502 152.715 18.5993 154.153 18.5179C155.846 18.4221 155.801 16.4248 155.294 15.2071C151.618 6.37417 135.694 4.40987 133.287 15.0975C132.721 17.6092 133.138 20.3521 134.762 22.4138C136.392 24.4829 139.53 26.0448 142.173 25.0879C143.333 24.6682 144.311 23.6177 144.521 22.3994" stroke="#5225B5" stroke-miterlimit="10" stroke-linecap="round" stroke-linejoin="round"/>
</svg>
