<?xml version="1.0" encoding="UTF-8"?>
<svg width="231.63mm" height="297.28mm" version="1.1" viewBox="0 0 231.63 297.28" xmlns="http://www.w3.org/2000/svg">
 <g transform="translate(42.83 -100.47)">
  <g stroke-width="0">
   <path d="m72.977 100.68-75.654 92.768-0.011719 0.0137c-12.582 13.6-24.214 28.492-31.93 46.826l-2e-3 8e-3 -0.0039 8e-3c-7.9405 19.059-9.4735 37.788-6.9727 56.949 0.89432 7.1665 2.5777 14.272 4.7754 21.299l0.0078 0.0293 0.0098 0.0274c4.5311 13.908 11.638 26.568 21.086 38.082l0.02148 0.0254 0.02149 0.0254c10.08 11.958 22.225 21.589 35.131 28.109l0.0059 2e-3 0.0059 4e-3c17.746 8.9071 34.355 12.877 51.957 12.754 17.589 0.25453 34.52-3.6342 50.238-10.502l0.0312-0.0137 0.0293-0.0137c15.901-7.2009 29.111-17.454 39.957-30.441l0.1289-0.1543 0.11524-0.16406c8.3461-11.806 15.701-24.234 20.223-37.697l4e-3 -0.0137 4e-3 -0.0117c1.6996-5.155 3.1446-10.386 4.1367-15.664 3.5802-16.108 2.9748-32.377-0.91211-48.686l-6e-3 -0.0273-8e-3 -0.0273c-4.1464-16.543-13.051-32.382-26.17-47.674l0.082 0.0977zm113.31 202.25c-4e-3 0.0175-4e-3 0.0352-8e-3 0.0527l0.0352-0.16992c-7e-3 0.0393-0.02 0.0779-0.0273 0.11719zm-114.87 94.676c-0.02038-2.9e-4 -0.04017 2e-3 -0.06055 2e-3h0.11133c-0.01711 1.3e-4 -0.03367-2e-3 -0.05078-2e-3zm-113.02-100.36c-7.4e-4 -6e-3 -0.0032-0.0116-0.0039-0.0176l0.0039 0.0293c-5.1e-4 -4e-3 5.09e-4 -8e-3 0-0.0117z" fill="#12285f"/>
   <path d="m72.975 108.6 82.426 101.18c12.734 14.843 21.197 30.004 25.114 45.632 3.7401 15.692 4.2946 31.204 0.88823 46.491-0.94163 5.0445-2.3344 10.089-3.9976 15.133-4.3103 12.834-11.363 24.801-19.563 36.401-10.367 12.413-23.001 22.217-38.182 29.092-15.155 6.6215-31.409 10.338-48.222 10.086-16.752 0.1244-32.624-3.6379-49.73-12.224-12.285-6.2067-23.891-15.397-33.562-26.87-9.0768-11.061-15.873-23.184-20.197-36.459-2.1312-6.8147-3.7402-13.629-4.5894-20.444-2.4035-18.404-0.90685-36.296 6.6306-54.387 7.4426-17.684 18.72-32.148 31.195-45.606z" fill="#ffc423"/>
   <path d="m-32.077 317.04 209.96 2e-3c-4.7379 13.245-10.789 25.235-18.85 36.402l-170.95 0.0284c-7.3878-8.8857-14.665-19.252-20.294-36.42z" fill="#12285f"/>
   <path d="m-11.927 353.47 169.77-0.0351c-7.0351 8.6538-15.978 16.327-26.679 23.097-10.071 6.3347-20.568 9.7684-31.136 12.723-14.995 3.7445-23.877 3.3964-32.862 3.2663-10.707-0.21417-22.873-2.5815-34.327-7.1776-7.4057-2.844-14.816-6.5863-21.845-11.208-7.5096-5.3189-15.14-11.298-22.92-20.666z" fill="#f46351"/>
   <path d="m-1.2117 226.63h22.454l17.561 4.2283v-5.0684h-6.5376v-5.4573c4.109-1.4602 8.142-2.357 12.02-2.1065v-1.6983c27.688-2.8966 42.443-1.4039 57.459 0v1.6185c4.321 0.18722 8.539 0.96169 12.668 2.2436v5.4927h-6.1086v5.1467l17.845-4.3872h21.838c-4.2062-10.011-12.239-19.475-24.495-28.335-10.346-7.1295-22.045-11.489-34.63-14.036-11.174-1.8298-22.595-0.92353-34.092 0.82944-10.068 2.452-20.126 5.8301-30.139 12.987-12.479 8.4767-19.708 18.363-25.843 28.543z" fill="#f46351"/>
  </g>
  <g fill="#12285f" stroke-width="0">
   <path d="m-25 235.8 4.4084-2.8386v84.015h1.4881v-84.677l16.125-3.8242v88.517h1.8665v-88.716h21.339v88.707h1.6898v-88.342l15.984 3.812v84.514h1.8036v-83.83l4.355 2.7973v80.942h1.6863v-4.2491h55.955v4.3235h1.7594v-81.046l3.9274-2.5947v83.514h1.8089v-84.315l16.023-3.9207v88.404h1.712v-88.726h21.088v88.723h1.7759v-88.518l16.103 3.7233v84.809h1.8465v-83.733l3.8897 2.6456v81.111h-196.88z"/>
   <path d="m34.163 224.1v-2.2985c4.2178-1.5714 8.0988-1.9022 11.881-1.8678v-1.6989c17.695-1.2179 35.351-2.5554 54.262 0v1.7697c4.5786-0.16414 8.8502 0.2192 12.48 1.7474v2.3573z"/>
   <path d="m40.538 226.25v5.4232l5.301 3.3245v8.1868h55.786v-8.0436l4.819-3.0319v-5.8626z"/>
  </g>
  <g stroke-width="0">
   <path d="m48.725 237.9c0.11296-0.61459 0.59151-0.79765 1.0359-0.87639h46.808c0.6064-0.0313 1.133 0.0709 1.259 0.8428l-0.01169 2.2572c-0.20471 0.82266-0.715 0.92602-1.2685 0.92758h-46.722c-0.57074-0.0812-1.0118-0.29943-1.0636-0.92837z" fill="#ffc423"/>
   <path d="m45.716 244.81v65.893h5.0992v-53.136c-0.90592-0.0713-1.6059 0.33568-1.7822-1.029v-1.867c0.15402-0.76339 0.5181-0.83373 0.88728-0.88728h46.947c0.64974-9e-3 0.95177 0.24014 1.0505 0.63924v1.9903c-0.09699 0.62979-0.24993 1.2211-1.354 1.1573v53.159h5.0872v-65.79z" fill="#12285f"/>
   <path d="m52.326 310.7h9.748v-27.709c1.369-8.8106 6.2973-11.121 11.474-11.474 7.3902 0.57336 10.679 4.7733 11.317 11.317v27.964h9.8245v-53.128h-42.479z" fill="#12285f"/>
  </g>
  <g fill="#ffc423" stroke-width="0">
   <path d="m54.677 259.2v5.9223c0.08992 0.56947 0.39576 0.80966 0.83952 0.8395 0.46715-0.0422 0.81887-0.22899 0.83545-0.83545v-5.9366c-0.16213-0.43959-0.50214-0.53316-0.89785-0.51837-0.52129 0.0242-0.71954 0.2093-0.77712 0.5286z"/>
   <path d="m61.511 259.21v5.9223c0.08992 0.56947 0.39576 0.80966 0.83952 0.8395 0.46715-0.0422 0.81887-0.22899 0.83545-0.83545v-5.9366c-0.16213-0.43959-0.50214-0.53316-0.89785-0.51837-0.52129 0.0242-0.71954 0.2093-0.77712 0.5286z"/>
   <path d="m69.099 259.18v5.9223c0.08992 0.56947 0.39576 0.80966 0.83952 0.8395 0.46715-0.0422 0.81887-0.22899 0.83545-0.83545v-5.9366c-0.16213-0.43959-0.50214-0.53316-0.89785-0.51837-0.52129 0.0242-0.71954 0.2093-0.77712 0.5286z"/>
   <path d="m76.371 259.16v5.9223c0.08992 0.56947 0.39576 0.80966 0.83952 0.8395 0.46715-0.0422 0.81887-0.22899 0.83545-0.83545v-5.9366c-0.16213-0.43959-0.50214-0.53316-0.89785-0.51837-0.52129 0.0242-0.71954 0.2093-0.77712 0.5286z"/>
   <path d="m83.609 259.16v5.9223c0.08992 0.56947 0.39576 0.80966 0.83952 0.8395 0.46715-0.0422 0.81887-0.22899 0.83545-0.83545v-5.9366c-0.16213-0.43959-0.50214-0.53316-0.89785-0.51837-0.52129 0.0242-0.71954 0.2093-0.77712 0.5286z"/>
   <path d="m90.411 259.18v5.9223c0.08992 0.56947 0.39576 0.80966 0.83952 0.8395 0.46715-0.0422 0.81887-0.22899 0.83545-0.83545v-5.9366c-0.16213-0.43959-0.50214-0.53316-0.89785-0.51837-0.52129 0.0242-0.71954 0.2093-0.77712 0.5286z"/>
   <path d="m-14.503 245.26 7.559-1.7324v-8.8896c-0.65501-1.0519-1.2106-2.1624-3.7729-2.1783-2.2233 0.36801-3.1432 2.1492-3.8469 3.7388z"/>
   <path d="m5.5616 242.25h8.5575v-8.7335c-0.73692-1.9516-1.3259-3.1214-4.0746-3.4371-2.2226-0.1026-4.2661 1.6108-4.5834 3.5046z"/>
   <path d="m26.284 243.59 7.7772 1.9288v-9.5296c-0.37726-1.3747-0.82092-2.9203-3.5932-3.5932-2.0391-0.0233-3.5053 0.96371-4.336 3.0713z"/>
   <path d="m112.63 245.38 7.7212-1.6083v-9.0156c-1.0245-1.939-2.3604-2.4784-3.8798-2.1932-2.3712 0.76688-3.4487 2.2022-3.8598 3.9819z"/>
   <path d="m132.6 242.11h8.5495v-8.7274c-0.64659-3.033-2.5558-3.1202-4.2189-3.3225-1.8266 0.19096-3.5678 0.59229-4.351 3.3556z"/>
   <path d="m153.85 243.75 7.6217 1.5674v-9.2082c-0.3758-1.4829-1.2178-2.9682-3.4166-3.5455-1.7743-0.13442-3.3753 0.19553-4.2298 2.526z"/>
  </g>
  <text x="72.219063" y="344.65396" fill="#000000" font-family="sans-serif" font-size="25.4px" stroke-width=".26458" style="line-height:1.25" xml:space="preserve"><tspan x="72.219063" y="344.65396" fill="#ffc423" font-family="Noto Sans,Arial,sans-serif" font-size="25.4px" font-weight="bold" stroke-width=".26458" text-align="center" text-anchor="middle">DRUPALCAMP</tspan></text>
  <text x="72.551521" y="382.2486" fill="#000000" font-family="sans-serif" font-size="25.4px" stroke-width=".26458" style="line-height:1.25" xml:space="preserve"><tspan x="72.551521" y="382.2486" fill="#12285f" font-family="Noto Sans,Arial,sans-serif" font-size="25.4px" font-weight="bold" stroke-width=".26458" text-align="center" text-anchor="middle">PUNE</tspan></text>
 </g>
</svg>
