<svg width="741" height="689" viewBox="0 0 741 689" fill="none" xmlns="http://www.w3.org/2000/svg">
<rect width="741" height="689" fill="white"/>
<mask id="mask0_34_2" style="mask-type:luminance" maskUnits="userSpaceOnUse" x="0" y="0" width="741" height="573">
<path d="M741 0H0V573H741V0Z" fill="white"/>
</mask>
<g mask="url(#mask0_34_2)">
<path d="M609.098 257.645L605.101 254.003L379.229 49L151.772 255.452C59.2923 339.384 35.2166 461.896 79.5445 565.921C115.725 566.004 151.864 566.014 187.982 565.986C315.231 565.884 442.234 565.271 569.514 565.215C605.428 565.196 641.363 565.224 677.338 565.326C721.176 462.509 698.5 341.642 609.098 257.645Z" fill="url(#paint0_linear_34_2)" stroke="#0D144F" stroke-width="14"/>
<path d="M613 411.917C613 462.393 595.191 508.927 565.205 546.214C440.848 546.27 316.761 546.896 192.434 547C162.059 509.581 144 462.744 144 411.917C144 289.351 248.989 190 378.5 190C508.011 190 613 289.351 613 411.917Z" fill="#FF841E"/>
<path d="M472.435 304.075H284.307V559.395H472.435V304.075Z" fill="#0D144F"/>
<path d="M652.682 454.008H105.043V559.395H652.682V454.008Z" fill="#0D144F"/>
<mask id="mask1_34_2" style="mask-type:luminance" maskUnits="userSpaceOnUse" x="-10163" y="278" width="10541" height="289">
<path d="M377.879 278H-10162.2V567H377.879V278Z" fill="white"/>
</mask>
<g mask="url(#mask1_34_2)">
<path d="M391.57 386.312H313.177C312.625 386.312 312.177 386.759 312.177 387.312V392.249C312.177 392.801 312.625 393.249 313.177 393.249H391.57" fill="#0D144F"/>
<path d="M391.57 386.312H313.177C312.625 386.312 312.177 386.759 312.177 387.312V392.249C312.177 392.801 312.625 393.249 313.177 393.249H391.57" stroke="#FFD38C" stroke-width="4" stroke-miterlimit="10" stroke-linecap="round"/>
<path d="M317.202 393.247V544.757H378.958" stroke="#FFD38C" stroke-width="4" stroke-miterlimit="10"/>
<path d="M348.712 543.365C348.413 512.938 348.546 487.466 348.712 468.234C348.712 464.527 348.879 457.81 352.739 451.24C359.194 440.266 371.738 436.853 378.293 435.642" stroke="#FFD38C" stroke-width="4" stroke-miterlimit="10"/>
<path d="M328.224 416.476V401.09" stroke="#FFD38C" stroke-width="4" stroke-miterlimit="10" stroke-linecap="round"/>
<path d="M347.154 416.476V401.09" stroke="#FFD38C" stroke-width="4" stroke-miterlimit="10" stroke-linecap="round"/>
<path d="M368.077 416.476V401.09" stroke="#FFD38C" stroke-width="4" stroke-miterlimit="10" stroke-linecap="round"/>
<path d="M104.06 557.222V334.743C109.526 331.068 114.959 327.43 120.426 323.755C136.792 320.08 153.124 316.442 169.49 312.768H232.386C249.585 316.879 266.784 320.99 283.983 325.138C289.016 328.339 294.049 331.541 299.082 334.743V557.222" fill="#0D144F"/>
<path d="M104.06 557.222V334.743C109.526 331.068 114.959 327.43 120.426 323.755C136.792 320.08 153.124 316.442 169.49 312.768H232.386C249.585 316.879 266.784 320.99 283.983 325.138C289.016 328.339 294.049 331.541 299.082 334.743V557.222" stroke="#FFD38C" stroke-width="4" stroke-miterlimit="10" stroke-linecap="round"/>
<path d="M118.804 557.223C118.804 558.328 119.699 559.223 120.804 559.223C121.909 559.223 122.804 558.328 122.804 557.223H118.804ZM118.804 323.633V557.223H122.804V323.633H118.804Z" fill="#FFD38C"/>
<path d="M168.052 557.222C168.052 558.327 168.947 559.222 170.052 559.222C171.157 559.222 172.052 558.327 172.052 557.222H168.052ZM168.052 314.94V557.222H172.052V314.94H168.052Z" fill="#FFD38C"/>
<path d="M231.09 557.222C231.09 558.327 231.985 559.222 233.09 559.222C234.194 559.222 235.09 558.327 235.09 557.222H231.09ZM231.09 314.94V557.222H235.09V314.94H231.09Z" fill="#FFD38C"/>
<path d="M280.338 557.222C280.338 558.327 281.233 559.222 282.338 559.222C283.442 559.222 284.338 558.327 284.338 557.222H280.338ZM280.338 326.892V557.222H284.338V326.892H280.338Z" fill="#FFD38C"/>
<path d="M449.532 358.49H300.831" stroke="#FFD38C" stroke-width="4" stroke-miterlimit="10"/>
<path d="M311.886 342.112C311.886 341.56 312.334 341.112 312.886 341.112H439.917C440.469 341.112 440.917 341.56 440.917 342.112V346.631C440.917 347.183 440.469 347.631 439.917 347.631H312.886C312.334 347.631 311.886 347.183 311.886 346.631V342.112Z" fill="#0D144F" stroke="#FFD38C" stroke-width="4" stroke-miterlimit="10"/>
<path d="M284.46 325.127V307.069H469.696" stroke="#FFD38C" stroke-width="4" stroke-miterlimit="10"/>
<path d="M298.908 289.213H288.131C280.947 291.014 273.763 292.851 266.578 294.652V305.565C306.305 305.781 346.032 306.033 385.759 306.249V280.317C366.767 279.885 346.245 280.389 324.479 282.37C316.157 283.127 308.048 284.027 300.223 285.107L299.156 289.213H298.908Z" fill="#0D144F" stroke="#FFD38C" stroke-width="4" stroke-miterlimit="10"/>
</g>
<mask id="mask2_34_2" style="mask-type:luminance" maskUnits="userSpaceOnUse" x="377" y="278" width="10541" height="286">
<path d="M10917.7 278H377.728V563.512H10917.7V278Z" fill="white"/>
</mask>
<g mask="url(#mask2_34_2)">
<path d="M363.918 386.312H442.311C442.863 386.312 443.311 386.759 443.311 387.312V392.249C443.311 392.801 442.863 393.249 442.311 393.249H363.918" fill="#0D144F"/>
<path d="M363.918 386.312H442.311C442.863 386.312 443.311 386.759 443.311 387.312V392.249C443.311 392.801 442.863 393.249 442.311 393.249H363.918" stroke="#FFD38C" stroke-width="4" stroke-miterlimit="10"/>
<path d="M406.742 543.365C407.042 512.938 406.909 487.466 406.742 468.234C406.742 464.527 406.575 457.81 402.715 451.24C396.26 440.266 383.716 436.853 377.161 435.642" stroke="#FFD38C" stroke-width="4" stroke-miterlimit="10"/>
<path d="M426.86 416.476V401.09" stroke="#FFD38C" stroke-width="4" stroke-miterlimit="10" stroke-linecap="round"/>
<path d="M407.93 416.476V401.09" stroke="#FFD38C" stroke-width="4" stroke-miterlimit="10" stroke-linecap="round"/>
<path d="M388.003 416.476V401.09" stroke="#FFD38C" stroke-width="4" stroke-miterlimit="10" stroke-linecap="round"/>
<path d="M650.713 557.222V334.742C645.302 331.067 639.923 327.429 634.512 323.754C618.312 320.08 602.144 316.441 585.944 312.767H523.683C506.658 316.878 489.632 320.989 472.607 325.137C467.625 328.338 462.643 331.54 457.66 334.742V557.222" fill="#0D144F"/>
<path d="M650.713 557.222V334.742C645.302 331.067 639.923 327.429 634.512 323.754C618.312 320.08 602.144 316.441 585.944 312.767H523.683C506.658 316.878 489.632 320.989 472.607 325.137C467.625 328.338 462.643 331.54 457.66 334.742V557.222" stroke="#FFD38C" stroke-width="4" stroke-miterlimit="10" stroke-linecap="round"/>
<path d="M634.953 323.633V557.223" stroke="#FFD38C" stroke-width="4" stroke-miterlimit="10" stroke-linecap="round"/>
<path d="M585.69 315.401V557.223" stroke="#FFD38C" stroke-width="4" stroke-miterlimit="10" stroke-linecap="round"/>
<path d="M522.668 315.401V557.223" stroke="#FFD38C" stroke-width="4" stroke-miterlimit="10" stroke-linecap="round"/>
<path d="M473.42 326.892V557.222" stroke="#FFD38C" stroke-width="4" stroke-miterlimit="10" stroke-linecap="round"/>
<path d="M305.955 358.49H454.657" stroke="#FFD38C" stroke-width="4" stroke-miterlimit="10"/>
<path d="M442.886 342.112C442.886 341.56 442.438 341.112 441.886 341.112H315.841C315.289 341.112 314.841 341.56 314.841 342.112V346.631C314.841 347.183 315.289 347.631 315.841 347.631H441.886C442.438 347.631 442.886 347.183 442.886 346.631V342.112Z" fill="#0D144F" stroke="#FFD38C" stroke-width="4" stroke-miterlimit="10"/>
<path d="M471.027 325.127V307.069H285.791" stroke="#FFD38C" stroke-width="4" stroke-miterlimit="10"/>
<path d="M454.299 289.213H465.573C473.113 291.014 480.654 292.851 488.194 294.652V305.565C446.498 305.781 404.801 306.033 363.104 306.249V280.317C383.038 279.885 404.577 280.389 427.422 282.37C436.157 283.127 444.669 284.027 452.881 285.107L454.299 289.213Z" fill="#0D144F" stroke="#FFD38C" stroke-width="4" stroke-miterlimit="10"/>
</g>
<path d="M488.598 358.491C493.622 357.573 498.68 356.656 503.704 355.702C503.638 351.15 503.638 347.37 503.704 344.581C503.837 337.02 504.17 334.304 502.44 332.065C500.81 329.936 498.181 329.385 496.151 329.275C494.354 330.046 491.526 331.624 489.862 334.818C488.598 337.277 488.598 339.552 488.598 344.544C488.598 347.37 488.598 351.481 488.598 358.454V358.491Z" fill="#0D144F" stroke="#FFD38C" stroke-width="5" stroke-linecap="round" stroke-linejoin="round"/>
<path d="M617.235 358.491C612.211 357.573 607.153 356.656 602.129 355.702C602.195 351.15 602.195 347.37 602.129 344.581C601.996 337.02 601.663 334.304 603.393 332.065C605.023 329.936 607.652 329.385 609.682 329.275C611.479 330.046 614.307 331.624 615.971 334.818C617.235 337.277 617.235 339.552 617.235 344.544C617.235 347.37 617.235 351.481 617.235 358.454V358.491Z" fill="#0D144F" stroke="#FFD38C" stroke-width="5" stroke-linecap="round" stroke-linejoin="round"/>
<path d="M265.827 358.378C260.803 357.461 255.745 356.543 250.721 355.589C250.787 351.038 250.787 347.257 250.721 344.468C250.587 336.907 250.255 334.191 251.985 331.952C253.616 329.824 256.244 329.273 258.274 329.163C260.071 329.934 262.899 331.512 264.563 334.705C265.827 337.164 265.827 339.44 265.827 344.431C265.827 347.257 265.827 351.368 265.827 358.342V358.378Z" fill="#0D144F" stroke="#FFD38C" stroke-width="5" stroke-linecap="round" stroke-linejoin="round"/>
<path d="M138.188 357.572C143.213 356.654 148.271 355.737 153.295 354.783C153.228 350.231 153.228 346.451 153.295 343.662C153.428 336.101 153.761 333.385 152.031 331.146C150.401 329.017 147.771 328.467 145.742 328.356C143.945 329.127 141.117 330.705 139.453 333.899C138.189 336.358 138.188 338.633 138.188 343.625C138.188 346.451 138.188 350.562 138.188 357.535V357.572Z" fill="#0D144F" stroke="#FFD38C" stroke-width="5" stroke-linecap="round" stroke-linejoin="round"/>
<path d="M211.359 350.157H193.724C193.724 346.597 193.724 342.89 193.724 339.036C193.79 331.769 193.89 329.971 194.988 327.915C195.287 327.328 197.982 322.336 202.541 322.373C207.066 322.373 209.795 327.328 210.094 327.915C211.225 330.081 211.326 331.916 211.359 340.431C211.359 342.963 211.359 346.267 211.359 350.157Z" fill="#0D144F" stroke="#FFD38C" stroke-width="5" stroke-linecap="round" stroke-linejoin="round"/>
<path d="M561.267 350.157H543.632C543.632 346.597 543.632 342.89 543.632 339.036C543.698 331.769 543.799 329.971 544.897 327.915C545.196 327.328 547.891 322.336 552.449 322.373C556.974 322.373 559.703 327.328 560.002 327.915C561.134 330.081 561.234 331.916 561.267 340.431C561.267 342.963 561.267 346.267 561.267 350.157Z" fill="#0D144F" stroke="#FFD38C" stroke-width="5" stroke-linecap="round" stroke-linejoin="round"/>
<path d="M299.566 544.757H455.822" stroke="#FFD38C" stroke-width="5" stroke-linecap="round" stroke-linejoin="round"/>
<path d="M438.946 395.339V544.185" stroke="#FFD38C" stroke-width="5" stroke-linecap="round"/>
</g>
<path d="M215.065 624C214.345 624 213.79 623.805 213.4 623.415C213.01 623.025 212.815 622.47 212.815 621.75V594.525C212.815 593.805 213.01 593.25 213.4 592.86C213.79 592.47 214.345 592.275 215.065 592.275H223.75C228.94 592.275 232.93 593.64 235.72 596.37C238.54 599.07 239.95 602.985 239.95 608.115C239.95 610.665 239.59 612.93 238.87 614.91C238.15 616.89 237.1 618.555 235.72 619.905C234.34 621.225 232.645 622.245 230.635 622.965C228.655 623.655 226.36 624 223.75 624H215.065ZM217 620.445H223.48C225.52 620.445 227.29 620.19 228.79 619.68C230.29 619.17 231.535 618.405 232.525 617.385C233.545 616.365 234.31 615.09 234.82 613.56C235.33 612 235.585 610.185 235.585 608.115C235.585 604.005 234.565 600.93 232.525 598.89C230.515 596.85 227.5 595.83 223.48 595.83H217V620.445ZM246.253 624.315C245.593 624.315 245.083 624.135 244.723 623.775C244.363 623.385 244.183 622.845 244.183 622.155V594.39C244.183 593.7 244.363 593.175 244.723 592.815C245.113 592.455 245.638 592.275 246.298 592.275H257.008C260.428 592.275 263.053 593.085 264.883 594.705C266.743 596.295 267.673 598.56 267.673 601.5C267.673 603.42 267.253 605.07 266.413 606.45C265.573 607.8 264.358 608.835 262.768 609.555C261.178 610.275 259.258 610.635 257.008 610.635L257.458 610.005H258.448C259.648 610.005 260.683 610.305 261.553 610.905C262.453 611.505 263.248 612.465 263.938 613.785L268.078 621.39C268.348 621.87 268.468 622.335 268.438 622.785C268.408 623.235 268.243 623.61 267.943 623.91C267.643 624.18 267.208 624.315 266.638 624.315C266.038 624.315 265.558 624.195 265.198 623.955C264.838 623.685 264.523 623.295 264.253 622.785L259.393 613.875C258.733 612.615 257.983 611.79 257.143 611.4C256.303 610.98 255.178 610.77 253.768 610.77H248.368V622.155C248.368 622.845 248.188 623.385 247.828 623.775C247.498 624.135 246.973 624.315 246.253 624.315ZM248.368 607.53H256.333C258.733 607.53 260.533 607.035 261.733 606.045C262.933 605.025 263.533 603.54 263.533 601.59C263.533 599.64 262.933 598.17 261.733 597.18C260.533 596.19 258.733 595.695 256.333 595.695H248.368V607.53ZM284.856 624.405C282.756 624.405 280.896 624.135 279.276 623.595C277.686 623.025 276.351 622.2 275.271 621.12C274.191 620.01 273.366 618.645 272.796 617.025C272.256 615.375 271.986 613.47 271.986 611.31V594.075C271.986 593.355 272.166 592.83 272.526 592.5C272.886 592.14 273.396 591.96 274.056 591.96C274.746 591.96 275.271 592.14 275.631 592.5C275.991 592.83 276.171 593.355 276.171 594.075V611.175C276.171 614.385 276.906 616.785 278.376 618.375C279.846 619.935 282.006 620.715 284.856 620.715C287.706 620.715 289.866 619.935 291.336 618.375C292.806 616.785 293.541 614.385 293.541 611.175V594.075C293.541 593.355 293.721 592.83 294.081 592.5C294.441 592.14 294.951 591.96 295.611 591.96C296.271 591.96 296.781 592.14 297.141 592.5C297.501 592.83 297.681 593.355 297.681 594.075V611.31C297.681 614.16 297.186 616.56 296.196 618.51C295.236 620.46 293.796 621.93 291.876 622.92C289.986 623.91 287.646 624.405 284.856 624.405ZM304.946 624.315C304.286 624.315 303.776 624.135 303.416 623.775C303.056 623.385 302.876 622.845 302.876 622.155V594.39C302.876 593.7 303.056 593.175 303.416 592.815C303.806 592.455 304.331 592.275 304.991 592.275H315.701C319.121 592.275 321.746 593.115 323.576 594.795C325.436 596.475 326.366 598.83 326.366 601.86C326.366 604.92 325.436 607.29 323.576 608.97C321.746 610.65 319.121 611.49 315.701 611.49H307.061V622.155C307.061 622.845 306.881 623.385 306.521 623.775C306.191 624.135 305.666 624.315 304.946 624.315ZM307.061 608.115H315.161C317.501 608.115 319.256 607.59 320.426 606.54C321.626 605.46 322.226 603.9 322.226 601.86C322.226 599.82 321.626 598.29 320.426 597.27C319.256 596.22 317.501 595.695 315.161 595.695H307.061V608.115ZM325.577 624.315C325.037 624.315 324.602 624.195 324.272 623.955C323.972 623.715 323.792 623.385 323.732 622.965C323.672 622.545 323.762 622.08 324.002 621.57L336.287 593.76C336.557 593.13 336.902 592.68 337.322 592.41C337.742 592.11 338.207 591.96 338.717 591.96C339.227 591.96 339.677 592.11 340.067 592.41C340.487 592.68 340.847 593.13 341.147 593.76L353.432 621.57C353.672 622.08 353.762 622.56 353.702 623.01C353.672 623.43 353.507 623.76 353.207 624C352.907 624.21 352.487 624.315 351.947 624.315C351.347 624.315 350.867 624.165 350.507 623.865C350.147 623.535 349.832 623.07 349.562 622.47L346.367 615L348.302 616.08H329.042L330.977 615L327.782 622.47C327.512 623.13 327.212 623.61 326.882 623.91C326.552 624.18 326.117 624.315 325.577 624.315ZM338.627 597L331.607 613.605L330.527 612.66H346.817L345.782 613.605L338.717 597H338.627ZM358.895 624C358.235 624 357.71 623.805 357.32 623.415C356.96 623.025 356.78 622.5 356.78 621.84V594.21C356.78 593.52 356.96 592.995 357.32 592.635C357.68 592.275 358.19 592.095 358.85 592.095C359.54 592.095 360.065 592.275 360.425 592.635C360.785 592.995 360.965 593.52 360.965 594.21V620.4H375.275C375.905 620.4 376.37 620.55 376.67 620.85C377 621.15 377.165 621.585 377.165 622.155C377.165 622.755 377 623.22 376.67 623.55C376.37 623.85 375.905 624 375.275 624H358.895ZM412.1 624.405C408.95 624.405 406.25 623.745 404 622.425C401.75 621.105 400.01 619.23 398.78 616.8C397.58 614.34 396.98 611.445 396.98 608.115C396.98 605.625 397.325 603.39 398.015 601.41C398.705 599.4 399.695 597.69 400.985 596.28C402.275 594.84 403.85 593.745 405.71 592.995C407.6 592.245 409.73 591.87 412.1 591.87C413.9 591.87 415.625 592.125 417.275 592.635C418.955 593.145 420.395 593.865 421.595 594.795C422.075 595.125 422.39 595.5 422.54 595.92C422.69 596.34 422.705 596.745 422.585 597.135C422.495 597.495 422.3 597.81 422 598.08C421.73 598.32 421.385 598.455 420.965 598.485C420.545 598.485 420.095 598.32 419.615 597.99C418.565 597.18 417.41 596.595 416.15 596.235C414.92 595.845 413.6 595.65 412.19 595.65C409.88 595.65 407.915 596.145 406.295 597.135C404.705 598.095 403.49 599.505 402.65 601.365C401.84 603.195 401.435 605.445 401.435 608.115C401.435 610.755 401.84 613.02 402.65 614.91C403.49 616.77 404.705 618.195 406.295 619.185C407.915 620.145 409.88 620.625 412.19 620.625C413.6 620.625 414.935 620.43 416.195 620.04C417.485 619.65 418.67 619.05 419.75 618.24C420.23 617.91 420.665 617.76 421.055 617.79C421.475 617.82 421.82 617.955 422.09 618.195C422.36 618.405 422.54 618.705 422.63 619.095C422.75 619.455 422.75 619.83 422.63 620.22C422.51 620.61 422.24 620.955 421.82 621.255C420.59 622.305 419.12 623.1 417.41 623.64C415.73 624.15 413.96 624.405 412.1 624.405ZM425.069 624.315C424.529 624.315 424.094 624.195 423.764 623.955C423.464 623.715 423.284 623.385 423.224 622.965C423.164 622.545 423.254 622.08 423.494 621.57L435.779 593.76C436.049 593.13 436.394 592.68 436.814 592.41C437.234 592.11 437.699 591.96 438.209 591.96C438.719 591.96 439.169 592.11 439.559 592.41C439.979 592.68 440.339 593.13 440.639 593.76L452.924 621.57C453.164 622.08 453.254 622.56 453.194 623.01C453.164 623.43 452.999 623.76 452.699 624C452.399 624.21 451.979 624.315 451.439 624.315C450.839 624.315 450.359 624.165 449.999 623.865C449.639 623.535 449.324 623.07 449.054 622.47L445.859 615L447.794 616.08H428.534L430.469 615L427.274 622.47C427.004 623.13 426.704 623.61 426.374 623.91C426.044 624.18 425.609 624.315 425.069 624.315ZM438.119 597L431.099 613.605L430.019 612.66H446.309L445.274 613.605L438.209 597H438.119ZM458.252 624.315C457.652 624.315 457.187 624.135 456.857 623.775C456.527 623.415 456.362 622.935 456.362 622.335V593.94C456.362 593.31 456.527 592.83 456.857 592.5C457.217 592.14 457.697 591.96 458.297 591.96C458.837 591.96 459.257 592.065 459.557 592.275C459.887 592.485 460.187 592.845 460.457 593.355L472.517 615.99H471.122L483.182 593.355C483.452 592.845 483.737 592.485 484.037 592.275C484.337 592.065 484.757 591.96 485.297 591.96C485.897 591.96 486.362 592.14 486.692 592.5C487.022 592.83 487.187 593.31 487.187 593.94V622.335C487.187 622.935 487.022 623.415 486.692 623.775C486.392 624.135 485.927 624.315 485.297 624.315C484.667 624.315 484.187 624.135 483.857 623.775C483.557 623.415 483.407 622.935 483.407 622.335V598.08H484.397L473.597 618.285C473.357 618.675 473.102 618.975 472.832 619.185C472.592 619.365 472.247 619.455 471.797 619.455C471.377 619.455 471.017 619.35 470.717 619.14C470.447 618.93 470.207 618.645 469.997 618.285L459.062 598.035H460.142V622.335C460.142 622.935 459.977 623.415 459.647 623.775C459.347 624.135 458.882 624.315 458.252 624.315ZM494.72 624.315C494.06 624.315 493.55 624.135 493.19 623.775C492.83 623.385 492.65 622.845 492.65 622.155V594.39C492.65 593.7 492.83 593.175 493.19 592.815C493.58 592.455 494.105 592.275 494.765 592.275H505.475C508.895 592.275 511.52 593.115 513.35 594.795C515.21 596.475 516.14 598.83 516.14 601.86C516.14 604.92 515.21 607.29 513.35 608.97C511.52 610.65 508.895 611.49 505.475 611.49H496.835V622.155C496.835 622.845 496.655 623.385 496.295 623.775C495.965 624.135 495.44 624.315 494.72 624.315ZM496.835 608.115H504.935C507.275 608.115 509.03 607.59 510.2 606.54C511.4 605.46 512 603.9 512 601.86C512 599.82 511.4 598.29 510.2 597.27C509.03 596.22 507.275 595.695 504.935 595.695H496.835V608.115Z" fill="black"/>
<path d="M261.622 669.405C260.482 669.405 259.612 669.09 259.012 668.46C258.412 667.83 258.112 666.945 258.112 665.805V640.83C258.112 639.66 258.412 638.775 259.012 638.175C259.642 637.575 260.527 637.275 261.667 637.275H272.602C276.142 637.275 278.872 638.175 280.792 639.975C282.712 641.745 283.672 644.22 283.672 647.4C283.672 650.58 282.712 653.07 280.792 654.87C278.872 656.67 276.142 657.57 272.602 657.57H265.087V665.805C265.087 666.945 264.787 667.83 264.187 668.46C263.617 669.09 262.762 669.405 261.622 669.405ZM265.087 652.17H271.432C273.232 652.17 274.597 651.765 275.527 650.955C276.487 650.145 276.967 648.96 276.967 647.4C276.967 645.84 276.487 644.67 275.527 643.89C274.597 643.11 273.232 642.72 271.432 642.72H265.087V652.17ZM299.335 669.495C297.085 669.495 295.09 669.21 293.35 668.64C291.64 668.04 290.2 667.17 289.03 666.03C287.86 664.89 286.975 663.465 286.375 661.755C285.805 660.015 285.52 658.005 285.52 655.725V640.425C285.52 639.255 285.82 638.37 286.42 637.77C287.02 637.17 287.89 636.87 289.03 636.87C290.14 636.87 290.995 637.17 291.595 637.77C292.195 638.37 292.495 639.255 292.495 640.425V655.77C292.495 658.35 293.08 660.3 294.25 661.62C295.42 662.91 297.115 663.555 299.335 663.555C301.555 663.555 303.235 662.91 304.375 661.62C305.545 660.3 306.13 658.35 306.13 655.77V640.425C306.13 639.255 306.43 638.37 307.03 637.77C307.63 637.17 308.485 636.87 309.595 636.87C310.705 636.87 311.545 637.17 312.115 637.77C312.715 638.37 313.015 639.255 313.015 640.425V655.725C313.015 658.755 312.49 661.305 311.44 663.375C310.42 665.415 308.89 666.945 306.85 667.965C304.84 668.985 302.335 669.495 299.335 669.495ZM320.177 669.405C319.127 669.405 318.317 669.12 317.747 668.55C317.207 667.95 316.937 667.11 316.937 666.03V640.38C316.937 639.24 317.207 638.37 317.747 637.77C318.317 637.17 319.067 636.87 319.997 636.87C320.807 636.87 321.422 637.035 321.842 637.365C322.292 637.665 322.802 638.175 323.372 638.895L339.167 659.01H337.952V640.2C337.952 639.15 338.222 638.34 338.762 637.77C339.332 637.17 340.142 636.87 341.192 636.87C342.242 636.87 343.037 637.17 343.577 637.77C344.147 638.34 344.432 639.15 344.432 640.2V666.165C344.432 667.155 344.177 667.95 343.667 668.55C343.157 669.12 342.467 669.405 341.597 669.405C340.757 669.405 340.082 669.24 339.572 668.91C339.092 668.58 338.567 668.055 337.997 667.335L322.247 647.22H323.417V666.03C323.417 667.11 323.147 667.95 322.607 668.55C322.067 669.12 321.257 669.405 320.177 669.405ZM352.214 669C351.044 669 350.144 668.685 349.514 668.055C348.884 667.425 348.569 666.525 348.569 665.355V640.92C348.569 639.75 348.884 638.85 349.514 638.22C350.144 637.59 351.044 637.275 352.214 637.275H367.919C368.819 637.275 369.494 637.515 369.944 637.995C370.424 638.445 370.664 639.105 370.664 639.975C370.664 640.875 370.424 641.565 369.944 642.045C369.494 642.495 368.819 642.72 367.919 642.72H355.229V650.145H366.884C367.814 650.145 368.504 650.385 368.954 650.865C369.434 651.315 369.674 651.99 369.674 652.89C369.674 653.79 369.434 654.48 368.954 654.96C368.504 655.41 367.814 655.635 366.884 655.635H355.229V663.555H367.919C368.819 663.555 369.494 663.795 369.944 664.275C370.424 664.725 370.664 665.385 370.664 666.255C370.664 667.155 370.424 667.845 369.944 668.325C369.494 668.775 368.819 669 367.919 669H352.214ZM386.898 669C385.788 669 384.963 668.745 384.423 668.235C383.913 667.695 383.658 666.915 383.658 665.895C383.658 665.235 383.823 664.62 384.153 664.05C384.483 663.48 384.933 662.895 385.503 662.295L393.963 653.385C395.223 652.035 396.123 650.835 396.663 649.785C397.233 648.735 397.518 647.685 397.518 646.635C397.518 645.315 397.083 644.31 396.213 643.62C395.373 642.93 394.143 642.585 392.523 642.585C391.653 642.585 390.753 642.72 389.823 642.99C388.923 643.23 387.978 643.635 386.988 644.205C386.328 644.565 385.713 644.7 385.143 644.61C384.603 644.49 384.138 644.235 383.748 643.845C383.358 643.425 383.103 642.93 382.983 642.36C382.863 641.79 382.923 641.22 383.163 640.65C383.403 640.08 383.853 639.6 384.513 639.21C385.833 638.4 387.273 637.8 388.833 637.41C390.393 636.99 391.938 636.78 393.468 636.78C395.838 636.78 397.833 637.14 399.453 637.86C401.073 638.55 402.303 639.57 403.143 640.92C403.983 642.27 404.403 643.92 404.403 645.87C404.403 647.13 404.208 648.36 403.818 649.56C403.428 650.76 402.813 651.975 401.973 653.205C401.163 654.405 400.083 655.695 398.733 657.075L390.858 665.085V663.285H403.053C404.013 663.285 404.733 663.525 405.213 664.005C405.723 664.485 405.978 665.19 405.978 666.12C405.978 667.05 405.723 667.77 405.213 668.28C404.733 668.76 404.013 669 403.053 669H386.898ZM418.921 669.495C415.081 669.495 412.141 668.07 410.101 665.22C408.091 662.34 407.086 658.275 407.086 653.025C407.086 649.515 407.536 646.56 408.436 644.16C409.366 641.73 410.701 639.9 412.441 638.67C414.211 637.41 416.371 636.78 418.921 636.78C422.791 636.78 425.731 638.175 427.741 640.965C429.751 643.725 430.756 647.745 430.756 653.025C430.756 656.535 430.291 659.52 429.361 661.98C428.461 664.41 427.141 666.27 425.401 667.56C423.661 668.85 421.501 669.495 418.921 669.495ZM418.921 663.825C420.661 663.825 421.951 662.97 422.791 661.26C423.631 659.52 424.051 656.775 424.051 653.025C424.051 649.275 423.631 646.575 422.791 644.925C421.951 643.275 420.661 642.45 418.921 642.45C417.181 642.45 415.891 643.275 415.051 644.925C414.211 646.575 413.791 649.275 413.791 653.025C413.791 656.775 414.211 659.52 415.051 661.26C415.891 662.97 417.181 663.825 418.921 663.825ZM436.363 669C435.253 669 434.428 668.745 433.888 668.235C433.378 667.695 433.123 666.915 433.123 665.895C433.123 665.235 433.288 664.62 433.618 664.05C433.948 663.48 434.398 662.895 434.968 662.295L443.428 653.385C444.688 652.035 445.588 650.835 446.128 649.785C446.698 648.735 446.983 647.685 446.983 646.635C446.983 645.315 446.548 644.31 445.678 643.62C444.838 642.93 443.608 642.585 441.988 642.585C441.118 642.585 440.218 642.72 439.288 642.99C438.388 643.23 437.443 643.635 436.453 644.205C435.793 644.565 435.178 644.7 434.608 644.61C434.068 644.49 433.603 644.235 433.213 643.845C432.823 643.425 432.568 642.93 432.448 642.36C432.328 641.79 432.388 641.22 432.628 640.65C432.868 640.08 433.318 639.6 433.978 639.21C435.298 638.4 436.738 637.8 438.298 637.41C439.858 636.99 441.403 636.78 442.933 636.78C445.303 636.78 447.298 637.14 448.918 637.86C450.538 638.55 451.768 639.57 452.608 640.92C453.448 642.27 453.868 643.92 453.868 645.87C453.868 647.13 453.673 648.36 453.283 649.56C452.893 650.76 452.278 651.975 451.438 653.205C450.628 654.405 449.548 655.695 448.198 657.075L440.323 665.085V663.285H452.518C453.478 663.285 454.198 663.525 454.678 664.005C455.188 664.485 455.443 665.19 455.443 666.12C455.443 667.05 455.188 667.77 454.678 668.28C454.198 668.76 453.478 669 452.518 669H436.363ZM473.336 669.405C472.256 669.405 471.401 669.105 470.771 668.505C470.171 667.905 469.871 667.035 469.871 665.895V663.33H459.791C458.681 663.33 457.796 663.09 457.136 662.61C456.476 662.1 456.146 661.335 456.146 660.315C456.146 659.715 456.281 659.1 456.551 658.47C456.821 657.84 457.301 657.06 457.991 656.13L469.646 639.165C470.156 638.415 470.726 637.845 471.356 637.455C471.986 637.065 472.706 636.87 473.516 636.87C474.476 636.87 475.241 637.17 475.811 637.77C476.411 638.34 476.711 639.21 476.711 640.38V657.84H478.376C479.366 657.84 480.116 658.08 480.626 658.56C481.136 659.01 481.391 659.685 481.391 660.585C481.391 661.455 481.136 662.13 480.626 662.61C480.146 663.09 479.396 663.33 478.376 663.33H476.711V665.895C476.711 667.035 476.411 667.905 475.811 668.505C475.241 669.105 474.416 669.405 473.336 669.405ZM469.871 657.84V645.465H471.176L461.591 659.55V657.84H469.871Z" fill="#FF841E"/>
<path d="M91.8 598.333H170" stroke="black" stroke-width="5" stroke-linecap="round"/>
<path d="M550.8 598.333H629" stroke="black" stroke-width="5" stroke-linecap="round"/>
<defs>
<linearGradient id="paint0_linear_34_2" x1="377.992" y1="853.583" x2="377.992" y2="109.485" gradientUnits="userSpaceOnUse">
<stop stop-color="#FF841E"/>
<stop offset="1" stop-color="#FED575"/>
</linearGradient>
</defs>
</svg>
